<?xml version="1.0" standalone="no"?>
<!DOCTYPE svg PUBLIC "-//W3C//DTD SVG 20010904//EN"
 "http://www.w3.org/TR/2001/REC-SVG-20010904/DTD/svg10.dtd">
<svg version="1.0" xmlns="http://www.w3.org/2000/svg"
 width="150.000000pt" height="150.000000pt" viewBox="0 0 150.000000 150.000000"
 preserveAspectRatio="xMidYMid meet">

<g transform="translate(0.000000,150.000000) scale(0.100000,-0.100000)"
fill="#000000" stroke="none">
<path d="M606 1093 c-4 -43 -8 -93 -11 -112 -2 -20 -1 -30 4 -25 10 10 26 214
18 214 -3 0 -8 -35 -11 -77z"/>
<path d="M635 1140 c-3 -5 -3 -19 0 -32 6 -22 9 -23 123 -22 l117 2 3 31 3 31
-120 0 c-66 0 -122 -4 -126 -10z"/>
<path d="M897 1111 c-3 -14 -2 -30 3 -36 5 -6 11 -42 13 -80 l3 -70 1 80 c1
44 -2 91 -6 105 l-7 25 -7 -24z"/>
<path d="M429 1081 c-3 -10 -35 -18 -100 -25 -94 -11 -94 -11 -98 -41 -5 -29
-5 -28 -11 10 l-6 40 -5 -42 -4 -42 96 2 c126 3 129 0 129 -109 0 -71 -3 -84
-16 -84 -13 0 -15 -7 -10 -35 5 -27 4 -35 -7 -35 -8 0 -17 -9 -20 -20 -6 -23
-27 -27 -27 -5 0 8 5 15 10 15 6 0 10 10 10 23 0 18 2 19 11 7 8 -11 9 -6 5
20 -8 46 -24 60 -41 37 -11 -16 -29 -18 -135 -18 -67 1 -126 3 -131 6 -5 4 -9
1 -9 -4 0 -6 -6 -11 -14 -11 -8 0 -18 -5 -22 -11 -5 -8 33 -9 138 -4 103 5
147 4 152 -4 5 -7 -9 -11 -43 -11 -39 0 -51 -4 -51 -15 0 -8 -4 -15 -10 -15
-5 0 -10 7 -10 15 0 8 -7 15 -15 15 -8 0 -15 -4 -15 -10 0 -5 -18 -10 -39 -10
-22 0 -43 5 -46 10 -9 15 -25 12 -25 -5 0 -8 -5 -15 -10 -15 -6 0 -9 3 -8 8 3
8 -5 12 -23 12 -7 0 -5 -10 5 -25 22 -34 20 -43 -11 -47 -16 -2 102 -7 262
-10 160 -4 332 -12 383 -18 65 -7 120 -7 180 0 48 6 215 14 371 17 163 3 276
10 263 14 -21 8 -22 39 -1 39 5 0 9 7 9 15 0 8 -7 15 -15 15 -8 0 -15 -5 -15
-12 0 -6 -7 -3 -16 8 -11 13 -17 15 -20 7 -7 -15 -84 -18 -84 -3 0 17 -38 11
-43 -7 -4 -17 -5 -17 -6 0 -1 14 -10 17 -51 17 -31 0 -50 4 -50 11 0 9 41 10
153 6 136 -6 149 -5 122 8 -21 10 -66 14 -154 13 -111 -1 -126 1 -138 18 -14
19 -15 19 -29 0 -18 -25 -18 -29 6 -70 13 -24 16 -37 9 -42 -13 -8 -28 13 -30
41 l0 20 -10 -20 c-7 -15 -8 -9 -5 23 3 31 1 42 -10 42 -11 0 -14 19 -14 90 0
89 0 91 28 101 16 7 59 8 110 4 75 -5 82 -4 81 12 0 10 -3 13 -6 6 -9 -23 -23
-13 -23 16 l0 29 -86 7 c-50 5 -91 13 -99 21 -11 12 -14 2 -20 -64 -9 -118
-12 -124 -14 -34 0 45 -4 82 -7 82 -4 0 -22 -9 -40 -21 -23 -14 -34 -28 -34
-44 0 -34 -10 -55 -26 -55 -21 0 -17 -28 5 -39 21 -12 33 -70 32 -159 0 -38 4
-54 14 -58 23 -9 18 -26 -7 -22 -20 3 -23 9 -24 53 -1 50 -1 50 -36 53 -29 3
-37 -1 -43 -20 l-8 -23 -4 23 c-4 18 -11 22 -39 22 -28 0 -34 -4 -34 -21 0
-18 -5 -20 -52 -17 -39 2 -53 7 -53 18 0 10 -12 16 -32 18 -28 3 -33 0 -33
-17 0 -12 -4 -21 -10 -21 -5 0 -10 9 -10 20 0 17 -7 20 -40 20 l-40 0 0 -55
c0 -48 -2 -55 -20 -55 -11 0 -20 7 -20 16 0 8 5 12 10 9 6 -4 10 14 10 47 1
66 22 160 38 166 17 5 15 39 -3 46 -9 3 -15 18 -15 38 0 27 -7 37 -35 56 -19
12 -37 22 -40 22 -3 0 -5 -37 -5 -82 0 -112 -18 -89 -22 27 -2 50 -6 84 -9 76z
m481 -393 l0 -28 -149 0 c-83 0 -152 4 -155 8 -3 5 -3 18 0 29 5 19 13 20 155
19 l149 -1 0 -27z m-602 -10 c3 -16 -6 -18 -86 -18 -93 0 -104 3 -95 26 4 12
24 14 92 12 72 -3 86 -6 89 -20z m1080 0 c3 -16 -6 -18 -86 -18 -93 0 -104 3
-95 26 4 12 24 14 92 12 72 -3 86 -6 89 -20z m-978 -3 c0 -8 -7 -15 -15 -15
-16 0 -20 12 -8 23 11 12 23 8 23 -8z m728 -3 c2 -7 -3 -12 -12 -12 -9 0 -16
7 -16 16 0 17 22 14 28 -4z"/>
<path d="M626 1038 c-3 -17 -2 -36 2 -40 5 -5 34 -6 65 -2 54 6 57 8 57 35 0
16 5 29 10 29 6 0 10 -13 10 -29 0 -26 3 -29 46 -35 76 -10 76 -10 72 32 l-3
37 -126 3 -126 3 -7 -33z"/>
<path d="M940 1006 c0 -20 5 -36 10 -36 6 0 10 13 10 29 0 17 -4 33 -10 36 -6
4 -10 -8 -10 -29z"/>
<path d="M563 995 c0 -22 2 -30 4 -17 2 12 2 30 0 40 -3 9 -5 -1 -4 -23z"/>
<path d="M632 971 c-9 -6 -11 -19 -7 -45 6 -29 4 -36 -9 -36 -10 0 -16 9 -17
28 -2 26 -2 26 -6 2 -3 -13 -12 -30 -21 -37 -15 -11 -11 -12 26 -13 36 0 43
-3 40 -17 -3 -14 -13 -18 -45 -18 -23 0 -39 -3 -36 -7 2 -5 20 -8 39 -8 19 0
34 -5 34 -11 0 -6 -10 -10 -22 -9 -43 4 -68 0 -68 -10 0 -6 78 -10 215 -10
137 0 215 4 215 10 0 11 -25 12 -212 10 -117 -1 -141 6 -93 28 15 7 25 8 25 2
0 -6 7 -10 15 -10 8 0 15 5 15 10 0 6 8 5 20 -2 16 -10 24 -10 40 0 12 7 20 8
20 2 0 -5 7 -10 16 -10 8 0 12 5 9 10 -9 14 17 12 36 -3 17 -13 99 -11 99 2 0
4 -18 5 -40 3 -36 -4 -40 -2 -40 18 0 20 4 22 40 18 40 -4 53 5 24 16 -9 3
-24 6 -34 6 -26 0 -33 15 -18 39 9 15 9 23 -1 35 -11 13 -36 16 -130 16 -64 0
-122 -4 -129 -9z m229 -25 c-9 -11 -9 -15 1 -19 7 -3 -37 -6 -97 -6 -104 -1
-111 0 -112 19 -2 19 4 20 109 20 94 0 109 -2 99 -14z m9 -46 c0 -6 -43 -10
-110 -10 -67 0 -110 4 -110 10 0 6 43 10 110 10 67 0 110 -4 110 -10z m-5 -30
c-3 -6 -52 -10 -111 -10 -63 0 -104 4 -104 10 0 6 44 10 111 10 71 0 108 -4
104 -10z"/>
<path d="M228 963 c-41 -4 -48 -7 -57 -33 -8 -24 -17 -31 -50 -36 -37 -6 -41
-9 -41 -36 0 -22 -6 -31 -20 -35 -20 -5 -20 -6 3 -18 26 -13 184 -8 193 6 3 5
16 9 29 9 13 0 27 5 31 12 5 8 -4 9 -34 4 l-42 -6 0 34 c0 33 2 35 51 45 28 6
55 9 60 5 5 -3 9 9 9 25 0 34 -1 34 -132 24z m-10 -118 l3 -35 -66 0 c-65 0
-65 0 -65 28 0 39 5 42 70 42 l56 0 2 -35z"/>
<path d="M1150 942 c0 -26 3 -28 45 -30 63 -2 85 -16 85 -52 0 -30 -1 -30 -42
-24 -30 5 -39 4 -34 -4 4 -7 18 -12 32 -12 13 0 24 -4 24 -10 0 -5 26 -10 58
-10 31 0 74 -4 94 -9 28 -7 35 -6 31 4 -2 7 4 15 14 18 15 4 15 5 2 6 -11 1
-19 14 -23 35 -6 31 -11 35 -46 41 -30 5 -41 12 -48 34 -9 25 -16 29 -72 34
-112 12 -120 11 -120 -21z m270 -87 c0 -24 -3 -25 -58 -25 -46 0 -59 3 -59 15
0 10 12 15 36 16 l36 2 -40 7 c-37 7 -35 7 23 9 60 1 62 0 62 -24z m-23 -42
c-20 -2 -52 -2 -70 0 -17 2 0 4 38 4 39 0 53 -2 32 -4z"/>
<path d="M1343 843 c15 -2 37 -2 50 0 12 2 0 4 -28 4 -27 0 -38 -2 -22 -4z"/>
<path d="M380 941 c0 -12 6 -21 16 -21 9 0 14 7 12 17 -5 25 -28 28 -28 4z"/>
<path d="M1110 935 c0 -18 4 -23 15 -19 8 4 15 15 15 25 0 10 -7 19 -15 19 -9
0 -15 -9 -15 -25z"/>
<path d="M372 850 c0 -14 2 -19 5 -12 2 6 2 18 0 25 -3 6 -5 1 -5 -13z"/>
<path d="M1132 850 c0 -14 2 -19 5 -12 2 6 2 18 0 25 -3 6 -5 1 -5 -13z"/>
<path d="M330 485 c0 -75 2 -85 18 -85 15 0 17 6 14 35 -5 41 4 46 18 10 12
-31 28 -32 40 -2 8 20 9 19 9 -10 1 -32 3 -33 40 -33 22 0 43 5 46 10 3 6 17
10 31 10 13 0 24 -4 24 -10 0 -5 9 -10 19 -10 19 0 19 2 -3 83 -18 67 -26 83
-43 85 -18 3 -24 -6 -38 -55 -31 -112 -33 -113 -34 -25 l-1 83 -27 -3 c-20 -2
-29 -9 -31 -25 -4 -30 -18 -29 -26 2 -5 18 -13 25 -31 25 -25 0 -25 -1 -25
-85z m229 -27 c1 -5 -6 -8 -14 -8 -15 0 -21 31 -8 44 7 6 20 -17 22 -36z"/>
<path d="M620 485 c0 -69 3 -85 15 -85 10 0 15 11 15 35 0 19 4 35 9 35 5 0
15 -16 22 -35 9 -23 19 -35 32 -35 13 0 17 5 13 16 -14 38 -17 62 -7 68 15 9
14 59 -1 74 -7 7 -31 12 -55 12 l-43 0 0 -85z m70 35 c0 -13 -7 -20 -20 -20
-13 0 -20 7 -20 20 0 13 7 20 20 20 13 0 20 -7 20 -20z"/>
<path d="M740 555 c0 -8 9 -15 20 -15 18 0 20 -7 20 -70 0 -63 2 -70 20 -70
18 0 20 7 20 70 0 63 2 70 20 70 11 0 20 7 20 15 0 12 -13 15 -60 15 -47 0
-60 -3 -60 -15z"/>
<path d="M880 485 c0 -69 3 -85 15 -85 12 0 15 16 15 85 0 69 -3 85 -15 85
-12 0 -15 -16 -15 -85z"/>
<path d="M930 485 c0 -69 3 -85 15 -85 11 0 15 13 15 53 1 57 13 49 24 -15 6
-32 11 -38 31 -38 25 0 25 1 25 85 0 69 -3 85 -15 85 -12 0 -15 -13 -15 -57
-1 -64 -13 -57 -25 15 -6 36 -10 42 -31 42 -23 0 -24 -2 -24 -85z"/>
<path d="M1072 558 c-7 -7 -12 -25 -12 -41 0 -23 7 -31 35 -43 36 -15 44 -28
23 -40 -6 -4 -16 0 -23 9 -16 22 -35 22 -35 -1 0 -41 63 -58 95 -26 25 26 14
57 -27 77 -39 19 -46 31 -26 43 6 4 16 0 23 -9 14 -19 45 -23 45 -6 0 6 -5 19
-10 30 -12 22 -68 27 -88 7z"/>
<path d="M540 330 c0 -22 3 -40 8 -40 4 0 6 18 4 40 -2 22 -6 40 -8 40 -2 0
-4 -18 -4 -40z"/>
<path d="M950 344 c0 -14 4 -23 9 -20 5 3 7 15 4 26 -7 28 -13 25 -13 -6z"/>
<path d="M1052 330 c1 -25 3 -38 6 -30 3 8 15 22 26 31 17 15 19 20 8 31 -11
11 -12 10 -7 -3 4 -10 2 -20 -4 -24 -6 -3 -15 4 -20 17 -7 19 -9 15 -9 -22z"/>
<path d="M782 330 c0 -19 2 -27 5 -17 2 9 2 25 0 35 -3 9 -5 1 -5 -18z"/>
<path d="M850 346 c0 -3 9 -10 20 -16 11 -6 20 -8 20 -6 0 3 -9 10 -20 16 -11
6 -20 8 -20 6z"/>
<path d="M460 331 c0 -6 4 -13 10 -16 6 -3 7 1 4 9 -7 18 -14 21 -14 7z"/>
<path d="M426 313 c-6 -14 -5 -15 5 -6 7 7 10 15 7 18 -3 3 -9 -2 -12 -12z"/>
</g>
</svg>
